# xmcd
#
# Track frame offsets: 
#        150
#        28889
#        57254
#        83719
#        109074
#        130318
#        164459
#        184783
#        202788
#        229231
#        255893
#        278073
#        299823
#
# Disc length: 4340 seconds
#
# Revision: 0
# Processed by: cddbd v1.5.2PL0 Copyright (c) Steve Scherf et al.
# Submitted via: ExactAudioCopyFreeDBPlugin 1.0
#
DISCID=b810f20d
DTITLE=Ha Phuong_Quang Linh - Loi thu xua
DYEAR=1900
DGENRE=
TTITLE0=Nho em ly bong mai
TTITLE1=Loi thu xua
TTITLE2=Em ve qua ben bac
TTITLE3=Tat nuoc dau dinh
TTITLE4=Gio danh do dua
TTITLE5=Hue xua
TTITLE6=Dang do 
TTITLE7=Chieu dong que
TTITLE8=Con sao sang song
TTITLE9=Chuyen do hau giang
TTITLE10=Tinh am chieu que
TTITLE11=Moi tinh que
TTITLE12=Thuong anh mat doi nat cho
EXTD=
EXTT0=
EXTT1=
EXTT2=
EXTT3=
EXTT4=
EXTT5=
EXTT6=
EXTT7=
EXTT8=
EXTT9=
EXTT10=
EXTT11=
EXTT12=
PLAYORDER=
